# xmcd
#
# Track frame offsets:
#	150
#	16399
#	34392
#	56731
#	71465
#	102487
#	114165
#	131089
#	145688
#	162468
#	178721
#	199891
#	213197
#	230334
#	252932
#	275357
#	292281
#	309864
#	328164
#
# Disc length: 4700 seconds
#
# Revision: 1
# Processed by: cddbd v1.5.2PL0 Copyright (c) Steve Scherf et al.
# Submitted via: EZCDAudioConverter 1.3.4.1
#
DISCID=21125a13
DTITLE=Sly and Robbie - Hot You Hot
DYEAR=2012
DGENRE=
TTITLE0=Hot You Hot
TTITLE1=(Theme From) Mission Impossible
TTITLE2=Billie Jean
TTITLE3=Unmetered Taxi
TTITLE4=Triplet
TTITLE5=Who Done It
TTITLE6=Red Hot
TTITLE7=Rasta Reggae
TTITLE8=Ayatollah
TTITLE9=Peter Gunn Theme
TTITLE10=Fire And Brimstone
TTITLE11=Skull and Crossbones
TTITLE12=Live It Up
TTITLE13=Slippin' Into Darkness
TTITLE14=Computer Malfunction
TTITLE15=Taxi Connection
TTITLE16=Swing Easy
TTITLE17=Battle Of Jericho
TTITLE18=Boops (Here To Go)
EXTD=
EXTT0=
EXTT1=
EXTT2=
EXTT3=
EXTT4=
EXTT5=
EXTT6=
EXTT7=
EXTT8=
EXTT9=
EXTT10=
EXTT11=
EXTT12=
EXTT13=
EXTT14=
EXTT15=
EXTT16=
EXTT17=
EXTT18=
PLAYORDER=
